<?xml version="1.0" standalone="no"?>
<!DOCTYPE svg PUBLIC "-//W3C//DTD SVG 20010904//EN"
 "http://www.w3.org/TR/2001/REC-SVG-20010904/DTD/svg10.dtd">
<svg version="1.0" xmlns="http://www.w3.org/2000/svg"
 width="512.000000pt" height="512.000000pt" viewBox="0 0 512.000000 512.000000"
 preserveAspectRatio="xMidYMid meet">
<metadata>
Created by potrace 1.14, written by Peter Selinger 2001-2017
</metadata>
<g transform="translate(0.000000,512.000000) scale(0.100000,-0.100000)"
fill="#000000" stroke="none">
<path d="M2267 5105 c-458 -56 -880 -226 -1257 -509 -117 -87 -337 -300 -435
-421 -230 -283 -414 -650 -499 -995 -51 -208 -67 -328 -73 -555 -13 -486 94
-917 331 -1330 265 -464 625 -801 1111 -1041 256 -126 507 -202 795 -240 176
-23 587 -15 745 14 377 70 670 184 970 379 284 185 548 445 733 721 209 311
332 617 404 1007 29 158 37 569 14 745 -50 383 -187 753 -397 1075 -377 580
-978 986 -1654 1119 -228 45 -562 58 -788 31z m1552 -1231 c2 -1 -24 -63 -57
-136 -33 -73 -84 -187 -112 -253 -28 -66 -53 -121 -55 -123 -2 -3 -40 11 -85
29 -70 30 -80 37 -75 55 2 12 40 100 83 195 43 96 91 204 106 240 l28 67 81
-35 c45 -20 84 -37 86 -39z m-995 -296 c32 -90 107 -307 168 -483 135 -395
251 -728 359 -1033 45 -128 79 -235 76 -238 -3 -3 -63 4 -134 15 -324 52 -572
72 -878 72 -361 1 -604 -28 -859 -101 -59 -18 -112 -28 -116 -23 -14 16 -260
712 -260 737 0 6 24 20 53 30 286 101 697 375 1048 699 134 123 469 465 469
479 0 4 4 8 8 8 5 0 34 -73 66 -162z m1545 -260 c6 -17 10 -32 9 -33 -2 -2
-91 -39 -198 -83 -107 -44 -252 -104 -321 -134 l-126 -54 -11 30 c-7 17 -8 33
-4 37 4 3 112 50 241 104 129 53 267 112 305 130 39 18 76 34 83 34 6 1 16
-13 22 -31z"/>
</g>
</svg>
